<svg width="37" height="44" viewBox="0 0 37 44" fill="none" xmlns="http://www.w3.org/2000/svg">
<path d="M31.4149 15.4891C31.4072 15.4902 31.4 15.4933 31.394 15.4982C31.388 15.5031 31.3834 15.5096 31.3808 15.5169C31.3782 15.5242 31.3776 15.5321 31.379 15.5397C31.3805 15.5473 31.3841 15.5544 31.3892 15.5601C31.4872 15.668 31.5982 15.8096 31.7222 15.9848C33.4954 18.4871 34.5353 21.2629 34.8421 24.312C34.9338 25.2224 34.9631 26.0455 34.9301 26.7813C34.794 29.8253 33.9909 32.5771 32.5206 35.0366C31.1243 37.3723 29.2706 39.3001 26.9596 40.8201C24.7248 42.2905 22.2149 43.2066 19.4297 43.5685C18.7119 43.6615 17.9218 43.7009 17.0594 43.6866C16.805 43.6826 16.5935 43.6681 16.425 43.643C16.151 43.6019 15.8803 43.6139 15.5806 43.5753C15.3461 43.5456 15.0393 43.5 14.6602 43.4383C12.3634 43.0679 10.2271 42.2545 8.25133 40.9982C7.27342 40.3761 6.37405 39.6794 5.55323 38.9083C3.21886 36.7164 1.59261 34.0894 0.674455 31.0271C0.340324 29.9135 0.135404 28.8364 0.0596974 27.7959C-0.0160088 26.753 -0.0197091 25.7302 0.0485972 24.7273C0.0725044 24.3774 0.12345 23.9296 0.201433 23.3839C0.277709 22.8497 0.357969 22.4062 0.442214 22.0534C0.708039 20.9381 1.09852 19.843 1.61367 18.7682C1.77476 18.4326 1.9552 18.1121 2.15499 17.8067C2.17064 17.7832 2.1795 17.7557 2.18061 17.7271C2.19085 17.3727 2.10633 17.0379 2.07815 16.71C1.98708 15.67 1.96317 14.5313 2.00643 13.2938C2.02009 12.9145 2.07303 12.6337 2.10206 12.2698C2.1419 11.7732 2.25632 11.1502 2.4453 10.4008C3.14088 7.64727 4.59353 5.42804 6.80324 3.74306C7.9081 2.90144 9.22555 2.26015 10.5311 1.78668C10.5702 1.77211 10.6047 1.74727 10.631 1.71476C11.2964 0.895111 12.1508 0.566907 13.1941 0.730153C13.3034 0.747277 13.4856 0.843454 13.7406 1.01869C13.7642 1.03465 13.7928 1.04135 13.8209 1.03752C14.3377 0.968457 14.6038 0.932498 14.6192 0.929644C14.9795 0.860293 15.3168 0.889403 15.6856 0.830326C15.7943 0.813203 15.9367 0.804356 16.1125 0.803785C16.9225 0.802643 17.656 0.842027 18.3129 0.921937C19.3437 1.04637 20.3154 1.28125 21.2278 1.62658C23.9049 2.63916 25.8445 4.46825 27.0467 7.11386C27.4622 8.02827 27.7821 8.96408 28.0064 9.92129C28.0111 9.94153 28.0222 9.95971 28.0381 9.97313C28.0539 9.98654 28.0736 9.99449 28.0943 9.99578C29.072 10.048 29.7977 10.0292 30.7028 10.084C31.1468 10.1114 31.5908 10.1373 32.0347 10.1619C32.6859 10.1978 33.373 10.2675 34.0959 10.3708C35.0086 10.5026 36.3235 10.7689 36.8068 11.6816C37.7144 13.3923 35.1956 14.537 33.9926 14.9154C33.157 15.1785 32.2977 15.3698 31.4149 15.4891ZM31.3884 15.4154C31.3873 15.3692 31.406 15.3435 31.4447 15.3384C32.4096 15.2122 33.3781 14.9825 34.3503 14.6491C34.9947 14.4282 35.5369 14.152 35.9769 13.8204C36.5182 13.4128 36.893 12.9274 36.8427 12.2227C36.8159 11.85 36.6488 11.5463 36.3415 11.3117C36.062 11.0983 35.8263 10.9501 35.6345 10.8674C35.3946 10.7629 35.1563 10.7261 34.9395 10.6448C34.9037 10.6317 34.8665 10.6225 34.8285 10.6174C34.4707 10.572 34.1625 10.4752 33.8363 10.4367C32.2744 10.2518 30.7068 10.167 29.1334 10.1824C28.7475 10.1864 28.3639 10.1573 27.9825 10.0951C27.9559 10.0908 27.9312 10.0785 27.9116 10.0599C27.8921 10.0412 27.8787 10.0171 27.8732 9.99064C27.6313 8.87075 27.2519 7.78996 26.735 6.74827C26.3702 6.0131 25.9242 5.32529 25.3971 4.68487C24.3731 3.44169 23.0732 2.50074 21.4976 1.86203C20.715 1.54467 19.981 1.32235 19.2956 1.19506C18.3638 1.02211 17.4303 0.942487 16.4951 0.956186C16.1672 0.961323 15.7408 0.977876 15.216 1.00584C14.8159 1.02696 14.3929 1.08119 13.9472 1.16852C13.8583 1.18558 13.7663 1.16847 13.6894 1.12057C12.8936 0.621417 11.8605 0.813203 11.1219 1.33462C11.0769 1.36658 10.9494 1.49986 10.7394 1.73446C10.6998 1.77874 10.6537 1.8171 10.6028 1.84833C10.4747 1.92653 10.3677 1.98104 10.2817 2.01186C8.90821 2.50331 7.66049 3.19368 6.53855 4.08297C6.3268 4.25164 6.19275 4.4263 6.00064 4.56928C5.8868 4.65376 5.75303 4.77648 5.59934 4.93744C4.86562 5.70858 4.28615 6.46773 3.86094 7.21489C3.05493 8.63216 2.52015 10.2158 2.2566 11.9659C2.22074 12.2056 2.21505 12.3797 2.23952 12.4881C2.2491 12.5294 2.24997 12.5722 2.24208 12.614C2.18801 12.9125 2.15898 13.0966 2.15499 13.1662C2.09067 14.2844 2.11145 15.3444 2.21732 16.3461C2.24066 16.5676 2.25546 16.7619 2.26172 16.9292C2.27026 17.1475 2.38809 17.6869 2.23355 17.9172C2.01553 18.242 1.82172 18.5964 1.65209 18.9806C1.0638 20.3085 0.628347 21.5902 0.402936 22.9927C0.360814 23.2547 0.321254 23.4952 0.284255 23.7144C0.22961 24.0415 0.202003 24.2844 0.201433 24.443C0.19688 25.4539 0.192326 26.2433 0.187772 26.8112C0.183218 27.3729 0.195173 27.7947 0.223634 28.0767C0.278279 28.6132 0.336908 29.0313 0.399522 29.331C0.955365 31.9886 2.02521 34.5083 3.67908 36.6719C5.24899 38.7262 7.19629 40.3646 9.52098 41.5873C11.367 42.559 13.4204 43.1704 15.4867 43.4358C15.8487 43.4829 16.1996 43.452 16.4874 43.4991C16.7304 43.5397 16.9797 43.5593 17.2353 43.5582C17.7539 43.5554 18.0485 43.5505 18.119 43.5436C18.6883 43.4889 19.1818 43.448 19.5996 43.4212C19.8677 43.4041 20.0735 43.333 20.2954 43.2954C20.3518 43.2857 20.481 43.2671 20.6831 43.2397C20.9751 43.2003 21.139 43.143 21.4891 43.0659C22.0333 42.9449 22.7334 42.7277 23.5895 42.4143C24.2487 42.1735 24.9149 41.8698 25.5883 41.5034C29.3127 39.4776 32.0026 36.461 33.6579 32.4535C33.8081 32.0899 34.0469 31.3065 34.3742 30.1033C34.475 29.7343 34.504 29.2565 34.6014 28.9277C34.6149 28.8819 34.6201 28.834 34.6167 28.7865C34.6105 28.6917 34.6236 28.573 34.656 28.4303C34.72 28.1529 34.7123 27.8712 34.7602 27.5964C34.8088 27.3138 34.761 27.0433 34.8003 26.7419C34.8179 26.61 34.8245 26.4639 34.8199 26.3035C34.7966 25.457 34.7764 24.9333 34.7593 24.7324C34.629 23.2295 34.3389 21.8091 33.8893 20.4712C33.8244 20.2794 33.6644 19.8642 33.4094 19.2254C33.3334 19.0354 33.2045 18.8359 33.1174 18.6184C33.0633 18.4837 32.993 18.3313 32.9065 18.1612C32.5177 17.4021 32.0686 16.6675 31.5592 15.9574C31.4647 15.8255 31.3705 15.7105 31.2765 15.6123C31.2682 15.6036 31.2635 15.5919 31.2635 15.5798C31.2635 15.5677 31.2682 15.556 31.2765 15.5473C31.3517 15.4668 31.389 15.4228 31.3884 15.4154Z" fill="white"/>
<path d="M31.3884 15.4154C31.389 15.4228 31.3517 15.4668 31.2765 15.5473C31.2682 15.556 31.2635 15.5677 31.2635 15.5798C31.2635 15.5919 31.2682 15.6036 31.2765 15.6123C31.3705 15.7105 31.4647 15.8255 31.5592 15.9574C32.0686 16.6674 32.5177 17.402 32.9065 18.1612C32.993 18.3313 33.0633 18.4837 33.1174 18.6184C33.2045 18.8359 33.3334 19.0354 33.4094 19.2254C33.6644 19.8641 33.8244 20.2794 33.8893 20.4712C34.3389 21.8091 34.629 23.2295 34.7593 24.7324C34.7764 24.9333 34.7966 25.457 34.8199 26.3035C34.8245 26.4639 34.8179 26.61 34.8003 26.7419C34.761 27.0433 34.8088 27.3138 34.7602 27.5963C34.7124 27.8712 34.72 28.1529 34.656 28.4303C34.6236 28.573 34.6105 28.6917 34.6167 28.7864C34.6201 28.834 34.6149 28.8819 34.6014 28.9277C34.504 29.2565 34.475 29.7342 34.3742 30.1033C34.0469 31.3065 33.8081 32.0899 33.6579 32.4535C32.0026 36.461 29.3127 39.4776 25.5883 41.5034C24.9149 41.8698 24.2487 42.1735 23.5895 42.4143C22.7334 42.7277 22.0333 42.9449 21.4891 43.0659C21.139 43.1429 20.9751 43.2003 20.6831 43.2397C20.481 43.2671 20.3518 43.2856 20.2954 43.2953C20.0735 43.333 19.8677 43.4041 19.5996 43.4212C19.1818 43.448 18.6883 43.4888 18.119 43.5436C18.0485 43.5505 17.7539 43.5553 17.2353 43.5582C16.9797 43.5593 16.7304 43.5396 16.4874 43.4991C16.1996 43.452 15.8487 43.4828 15.4867 43.4358C13.4204 43.1703 11.367 42.559 9.52098 41.5873C7.19628 40.3646 5.24899 38.7262 3.67908 36.6719C2.02521 34.5083 0.955364 31.9886 0.399521 29.331C0.336907 29.0313 0.278278 28.6132 0.223633 28.0767C0.195172 27.7947 0.183217 27.3729 0.187771 26.8112C0.192324 26.2433 0.196879 25.4539 0.201432 24.443C0.202002 24.2843 0.229609 24.0415 0.284254 23.7144C0.321253 23.4952 0.360812 23.2546 0.402935 22.9926C0.628346 21.5902 1.0638 20.3085 1.65209 18.9806C1.82171 18.5964 2.01553 18.242 2.23354 17.9172C2.38809 17.6869 2.27026 17.1475 2.26172 16.9291C2.25546 16.7619 2.24066 16.5676 2.21732 16.3461C2.11145 15.3444 2.09067 14.2844 2.15499 13.1662C2.15898 13.0966 2.18801 12.9125 2.24208 12.614C2.24997 12.5722 2.2491 12.5293 2.23952 12.4881C2.21505 12.3797 2.22074 12.2056 2.2566 11.9658C2.52015 10.2158 3.05493 8.63215 3.86094 7.21488C4.28615 6.46772 4.86562 5.70857 5.59934 4.93743C5.75303 4.77647 5.88679 4.65375 6.00064 4.56927C6.19275 4.42629 6.3268 4.25163 6.53855 4.08296C7.66048 3.19367 8.90821 2.5033 10.2817 2.01185C10.3677 1.98103 10.4747 1.92652 10.6028 1.84832C10.6537 1.81709 10.6998 1.77873 10.7394 1.73445C10.9494 1.49985 11.0769 1.36657 11.1219 1.33461C11.8605 0.813191 12.8936 0.621406 13.6894 1.12056C13.7663 1.16846 13.8583 1.18557 13.9472 1.16851C14.3929 1.08118 14.8159 1.02695 15.216 1.00583C15.7408 0.977864 16.1672 0.961311 16.4951 0.956174C17.4303 0.942475 18.3638 1.0221 19.2956 1.19505C19.981 1.32233 20.715 1.54466 21.4976 1.86202C23.0732 2.50073 24.3731 3.44168 25.3971 4.68486C25.9242 5.32528 26.3702 6.01308 26.735 6.74826C27.2519 7.78995 27.6313 8.87074 27.8732 9.99063C27.8787 10.0171 27.8921 10.0412 27.9116 10.0599C27.9312 10.0785 27.9559 10.0908 27.9825 10.0951C28.3639 10.1573 28.7475 10.1864 29.1334 10.1824C30.7068 10.167 32.2744 10.2518 33.8363 10.4367C34.1625 10.4752 34.4707 10.572 34.8285 10.6174C34.8665 10.6225 34.9037 10.6317 34.9395 10.6448C35.1563 10.7261 35.3946 10.7629 35.6345 10.8674C35.8263 10.9501 36.062 11.0982 36.3415 11.3117C36.6488 11.5463 36.8159 11.85 36.8427 12.2227C36.893 12.9273 36.5182 13.4128 35.9769 13.8203C35.5369 14.152 34.9947 14.4282 34.3503 14.6491C33.3781 14.9825 32.4096 15.2122 31.4448 15.3384C31.406 15.3435 31.3873 15.3692 31.3884 15.4154ZM26.309 10.1054C26.3138 10.1029 26.3176 10.0989 26.3198 10.0941C26.322 10.0892 26.3224 10.0838 26.3209 10.0788C25.8453 8.12158 24.8908 6.1164 23.4495 4.78161C22.6822 4.07097 21.8602 3.52501 20.9836 3.14372C19.0164 2.2884 16.8511 2.09832 14.7447 2.27641C12.5 2.46648 10.2877 3.22934 8.47504 4.61208C6.80267 5.8878 5.55636 7.46203 4.73612 9.33479C3.92669 11.1824 3.60309 13.2561 3.70299 15.2664C3.74568 16.134 3.79947 16.8823 3.86436 17.5114C3.86562 17.5237 3.86958 17.5357 3.87596 17.5463C3.88234 17.557 3.89099 17.5662 3.90131 17.5732C3.91163 17.5802 3.92337 17.5849 3.93572 17.5869C3.94806 17.589 3.96071 17.5883 3.97279 17.585C4.66781 17.3909 5.20942 17.2468 5.59763 17.1526C7.04231 16.8021 8.52171 16.3238 10.0358 15.7176C11.9006 14.9705 13.68 14.1714 15.374 13.3203C16.279 12.8657 17.2686 12.4102 17.9602 12.1131C20.5616 10.9972 23.3026 10.3405 26.1835 10.143C26.221 10.1402 26.2629 10.1276 26.309 10.1054ZM32.3481 11.5848C32.3521 11.5786 32.3544 11.5714 32.3548 11.5639C32.3552 11.5565 32.3537 11.5491 32.3504 11.5424C32.3472 11.5357 32.3423 11.5299 32.3362 11.5257C32.3301 11.5214 32.323 11.5188 32.3157 11.5181C31.4763 11.4436 30.7702 11.4179 29.8097 11.3674C27.5823 11.2492 25.3589 11.4199 23.1396 11.8794C22.179 12.078 21.2859 12.3683 20.3749 12.7107C19.4732 13.0492 18.6043 13.4211 17.7681 13.8263C16.32 14.5273 14.9158 15.2082 13.5553 15.8692C13.1791 16.0518 12.815 16.1977 12.4633 16.3067C12.4583 16.3084 12.454 16.3115 12.4508 16.3156C12.4477 16.3198 12.4458 16.3248 12.4454 16.33C12.445 16.3352 12.4462 16.3404 12.4488 16.3449C12.4514 16.3495 12.4552 16.3531 12.4599 16.3555C12.5805 16.4143 12.7186 16.4679 12.874 16.5165C14.1026 16.9 15.4056 17.21 16.6154 17.2947C17.8068 17.3781 18.9632 17.3415 20.0846 17.1851C21.2412 17.023 22.3372 16.6109 23.3726 15.9488C23.6459 15.7742 24.2538 15.3729 25.1964 14.745C25.9091 14.2701 26.7504 13.7792 27.7203 13.2724C29.1741 12.5127 30.6948 11.961 32.2824 11.6174C32.3165 11.6105 32.3384 11.5997 32.3481 11.5848ZM28.4299 14.7082C28.2546 14.7738 28.1621 14.809 28.1524 14.8135C27.2303 15.2644 26.3352 15.8104 25.4671 16.4514C24.6821 17.0307 24.1821 17.3923 23.9669 17.5362C22.7038 18.3775 21.3092 18.7942 19.7831 18.7862C19.0497 18.7819 18.3564 18.7854 17.5214 18.7751C16.9647 18.7674 16.589 18.6698 15.9887 18.6081C14.1487 18.4198 12.4197 17.8846 10.6788 17.406C10.3759 17.3227 10.1019 17.3196 9.85653 17.3966C7.93029 18.0051 5.76043 18.6287 3.34694 19.2674C3.17788 19.3119 3.06034 19.4152 2.99431 19.5773C2.70059 20.2931 2.4433 21.0166 2.22244 21.7478C1.87921 22.8836 1.66945 24.1987 1.59317 25.6931C1.55504 26.4465 1.57951 27.1366 1.6666 27.7633C1.75369 28.3892 1.87067 29.1846 2.00472 29.7497C2.80134 33.0965 4.66867 36.0974 7.2959 38.3175C9.35619 40.059 11.8007 41.2893 14.4254 41.7799C15.0248 41.8921 15.6267 41.9751 16.1655 42.0119C17.2977 42.0898 18.534 42.0915 19.6961 41.8903C20.4964 41.7528 21.0041 41.6563 21.2193 41.601C24.3793 40.7884 27.2038 39.0778 29.3785 36.5991C32.1594 33.4287 33.5768 29.3181 33.2907 25.098C33.2395 24.3337 33.1459 23.5928 33.0098 22.8753C32.4531 19.9344 30.9837 17.1946 28.9285 15.0395C28.8198 14.9248 28.6798 14.8167 28.5084 14.7151C28.4967 14.7081 28.4835 14.7039 28.4699 14.7027C28.4563 14.7015 28.4427 14.7034 28.4299 14.7082Z" fill="white"/>
<path d="M26.309 10.1054C26.2629 10.1276 26.221 10.1402 26.1835 10.143C23.3026 10.3405 20.5616 10.9972 17.9602 12.1131C17.2686 12.4102 16.279 12.8657 15.374 13.3203C13.68 14.1714 11.9006 14.9705 10.0358 15.7176C8.52172 16.3238 7.04232 16.8021 5.59764 17.1526C5.20943 17.2468 4.66782 17.3909 3.97281 17.585C3.96072 17.5883 3.94807 17.589 3.93573 17.5869C3.92338 17.5849 3.91164 17.5802 3.90132 17.5732C3.891 17.5662 3.88235 17.557 3.87597 17.5463C3.86959 17.5357 3.86563 17.5237 3.86437 17.5113C3.79948 16.8823 3.74569 16.134 3.703 15.2664C3.6031 13.2561 3.9267 11.1824 4.73613 9.33479C5.55637 7.46203 6.80268 5.88779 8.47505 4.61208C10.2877 3.22934 12.5 2.46648 14.7447 2.27641C16.8511 2.09832 19.0164 2.28839 20.9836 3.14372C21.8602 3.52501 22.6822 4.07097 23.4495 4.7816C24.8908 6.11639 25.8453 8.12158 26.3209 10.0788C26.3224 10.0838 26.322 10.0892 26.3198 10.0941C26.3177 10.0989 26.3138 10.1029 26.309 10.1054Z" fill="#292D3D"/>
<path d="M32.3481 11.5849C32.3384 11.5997 32.3165 11.6106 32.2823 11.6174C30.6948 11.961 29.1741 12.5127 27.7203 13.2724C26.7504 13.7793 25.9091 14.2701 25.1964 14.745C24.2538 15.3729 23.6458 15.7742 23.3726 15.9488C22.3372 16.611 21.2412 17.0231 20.0845 17.1852C18.9632 17.3416 17.8068 17.3781 16.6154 17.2948C15.4055 17.21 14.1026 16.9001 12.8739 16.5165C12.7185 16.468 12.5805 16.4143 12.4598 16.3555C12.4552 16.3532 12.4513 16.3495 12.4488 16.3449C12.4462 16.3404 12.445 16.3352 12.4454 16.33C12.4457 16.3248 12.4476 16.3198 12.4508 16.3157C12.454 16.3115 12.4583 16.3084 12.4632 16.3067C12.815 16.1977 13.179 16.0519 13.5553 15.8692C14.9157 15.2082 16.32 14.5273 17.7681 13.8264C18.6043 13.4211 19.4732 13.0492 20.3748 12.7108C21.2859 12.3683 22.179 12.078 23.1395 11.8794C25.3589 11.4199 27.5823 11.2492 29.8096 11.3674C30.7702 11.4179 31.4763 11.4436 32.3156 11.5181C32.323 11.5188 32.3301 11.5215 32.3362 11.5257C32.3423 11.53 32.3472 11.5357 32.3504 11.5424C32.3537 11.5491 32.3552 11.5565 32.3547 11.5639C32.3543 11.5714 32.352 11.5786 32.3481 11.5849Z" fill="#292D3D"/>
<path d="M28.5084 14.7151C28.6798 14.8167 28.8198 14.9249 28.9285 15.0396C30.9837 17.1946 32.4531 19.9344 33.0098 22.8754C33.1459 23.5929 33.2395 24.3338 33.2907 25.098C33.5768 29.3182 32.1594 33.4287 29.3785 36.5992C27.2038 39.0778 24.3793 40.7885 21.2193 41.601C21.0041 41.6564 20.4964 41.7528 19.6961 41.8904C18.534 42.0916 17.2976 42.0899 16.1655 42.012C15.6267 41.9752 15.0248 41.8921 14.4254 41.7799C11.8007 41.2894 9.35618 40.059 7.29589 38.3175C4.66866 36.0974 2.80134 33.0965 2.00471 29.7497C1.87066 29.1846 1.75369 28.3892 1.6666 27.7633C1.57951 27.1366 1.55503 26.4465 1.59317 25.6931C1.66944 24.1988 1.8792 22.8837 2.22244 21.7478C2.4433 21.0166 2.70058 20.2931 2.9943 19.5774C3.06033 19.4153 3.17787 19.312 3.34693 19.2674C5.76042 18.6287 7.93029 18.0051 9.85652 17.3967C10.1019 17.3196 10.3759 17.3228 10.6788 17.4061C12.4197 17.8847 14.1487 18.4198 15.9887 18.6082C16.589 18.6698 16.9647 18.7674 17.5214 18.7751C18.3564 18.7854 19.0497 18.782 19.7831 18.7863C21.3092 18.7942 22.7038 18.3776 23.9669 17.5362C24.1821 17.3924 24.6821 17.0308 25.4671 16.4514C26.3351 15.8104 27.2302 15.2645 28.1524 14.8136C28.1621 14.809 28.2546 14.7739 28.4299 14.7082C28.4426 14.7034 28.4563 14.7016 28.4699 14.7027C28.4835 14.7039 28.4967 14.7081 28.5084 14.7151ZM28.441 14.793C27.3822 15.2867 26.3462 15.9226 25.333 16.7006C24.2444 17.5371 23.2377 18.24 21.9399 18.6313C21.4726 18.7723 20.8834 18.8636 20.1725 18.9053C19.1894 18.9623 18.1899 18.9464 17.1738 18.8573C15.4821 18.7095 13.8129 18.4018 12.1661 17.9343C11.787 17.8265 11.2873 17.6789 10.6668 17.4917C10.3893 17.4078 10.1887 17.3821 9.93166 17.4737C9.2486 17.7157 8.5792 17.9301 7.92346 18.1167C6.18791 18.6105 4.64874 19.034 3.30595 19.3873C3.26849 19.3971 3.23378 19.4154 3.20448 19.4408C3.17517 19.4662 3.15205 19.498 3.13689 19.5337C2.19512 21.7247 1.68709 24.0467 1.72722 26.4936C1.7904 30.2745 3.27436 33.9476 5.81279 36.7456C7.99603 39.1515 10.9819 40.9443 14.1479 41.589C17.7237 42.3168 21.1473 41.8827 24.4186 40.2868C25.968 39.5305 27.3745 38.5162 28.6382 37.2439C31.4763 34.3868 33.0824 30.5639 33.1806 26.5493C33.2591 23.3078 32.4673 20.3365 30.8052 17.6355C30.1569 16.5819 29.4081 15.6412 28.5588 14.8136C28.5434 14.7987 28.5239 14.7887 28.5029 14.7851C28.4819 14.7814 28.4603 14.7842 28.441 14.793Z" fill="white"/>
<path d="M28.441 14.793C28.4603 14.7841 28.4819 14.7814 28.5029 14.785C28.5239 14.7887 28.5434 14.7986 28.5588 14.8135C29.4081 15.6412 30.1569 16.5818 30.8053 17.6355C32.4674 20.3365 33.2592 23.3077 33.1806 26.5492C33.0824 30.5639 31.4764 34.3867 28.6382 37.2438C27.3746 38.5161 25.968 39.5304 24.4186 40.2867C21.1473 41.8826 17.7237 42.3167 14.1479 41.589C10.9819 40.9443 7.99606 39.1514 5.81282 36.7455C3.27438 33.9475 1.79043 30.2745 1.72725 26.4936C1.68712 24.0466 2.19514 21.7246 3.13692 19.5337C3.15208 19.4979 3.1752 19.4662 3.2045 19.4408C3.23381 19.4154 3.26852 19.3971 3.30597 19.3873C4.64876 19.0339 6.18793 18.6104 7.92348 18.1167C8.57923 17.93 9.24863 17.7157 9.93169 17.4737C10.1887 17.3821 10.3893 17.4078 10.6668 17.4917C11.2873 17.6789 11.7871 17.8264 12.1662 17.9343C13.8129 18.4018 15.4822 18.7094 17.1739 18.8573C18.1899 18.9463 19.1895 18.9623 20.1725 18.9052C20.8835 18.8636 21.4726 18.7722 21.9399 18.6312C23.2378 18.24 24.2444 17.537 25.3331 16.7005C26.3463 15.9226 27.3823 15.2867 28.441 14.793ZM31.4285 33.2121C31.4371 33.2064 31.4459 33.1944 31.455 33.1761C32.0715 31.9763 32.5249 30.6629 32.8152 29.2359C32.9996 28.333 33.1006 27.2282 33.1183 25.9217C33.1211 25.7396 33.1063 25.4873 33.0739 25.1648C33.0471 24.8965 33.0329 24.6425 33.0312 24.4028C33.0306 24.3755 33.0272 24.3485 33.0209 24.3223C32.9646 24.0971 32.9637 23.8488 32.933 23.6476C32.6165 21.5654 31.905 19.613 30.7984 17.7905C30.4188 17.1637 30.0155 16.5901 29.5885 16.0695C29.3779 15.8127 29.2621 15.6706 29.241 15.6432C29.0225 15.3563 28.7484 15.1046 28.5947 14.9419C28.568 14.9139 28.533 14.8951 28.495 14.8884C28.4569 14.8816 28.4176 14.8872 28.3829 14.9043L27.5163 15.3341C27.4963 15.3439 27.48 15.36 27.4698 15.3799C27.4597 15.3998 27.4562 15.4225 27.4599 15.4445C27.5436 15.9634 27.5974 16.7767 27.3267 17.2374C27.0271 17.7494 26.3577 18.0311 26.0161 18.2588C25.0393 18.9104 24.6841 19.8719 24.6047 21.0346C24.5763 21.4489 24.5416 21.9227 24.5006 22.4558C24.4519 23.0902 24.6005 23.8026 25.4449 23.6391C26.0656 23.5183 26.4866 23.1913 26.8691 22.6904C27.2567 22.181 27.9936 21.157 28.6878 21.8608C28.9781 22.1553 29.0293 22.8026 29.0771 23.0911C29.1275 23.3968 29.3478 23.5098 29.6466 23.485C29.7798 23.4738 30.211 23.4584 30.3775 23.5629C30.5608 23.6776 30.6888 23.814 30.7617 23.9721C30.92 24.3169 31.0475 24.578 31.1442 24.7555C31.3141 25.0697 31.3901 25.3403 31.0751 25.5578C30.972 25.6291 30.8391 25.6816 30.6763 25.7153C29.7465 25.9097 29.0669 25.7204 28.3266 25.2067C27.8587 24.8822 27.4087 24.7256 26.8495 24.6168C26.1194 24.4747 25.3775 24.7093 24.8097 25.1442C23.7538 25.9519 23.0883 27.013 22.8134 28.3275C22.7016 28.8661 22.7058 29.4123 22.7519 29.9474C22.7941 30.4389 22.9714 30.8807 23.2839 31.2728C24.089 32.2822 25.3211 32.2069 26.4524 31.8208C26.9323 31.6564 27.3245 31.7543 27.629 32.1144C27.8262 32.3473 27.8775 32.6958 27.9167 33.0083C27.9799 33.5072 28.007 33.9775 27.9979 34.4193C27.9922 34.703 27.9142 35.1827 27.7639 35.8585C27.6068 36.5657 27.3396 37.2652 27.4642 38.0735C27.4661 38.0849 27.4709 38.0957 27.4783 38.1046C27.4856 38.1136 27.4951 38.1205 27.506 38.1246C27.5168 38.1287 27.5285 38.1298 27.5399 38.1279C27.5513 38.126 27.562 38.1211 27.5709 38.1137C29.1249 36.7992 30.3735 35.2398 31.3167 33.4355C31.3198 33.4303 31.3259 33.4208 31.3342 33.408C31.3426 33.3952 31.3528 33.3798 31.3637 33.3636C31.3904 33.3237 31.4032 33.2905 31.4021 33.2643C31.4018 33.2541 31.4041 33.2439 31.4087 33.2348C31.4134 33.2257 31.4202 33.2179 31.4285 33.2121ZM17.22 18.9138C17.1215 18.9212 16.9442 18.9141 16.688 18.8924C16.581 18.8838 16.0719 18.8167 15.1605 18.6912C14.6739 18.6244 14.1197 18.478 13.7253 18.4078C13.4213 18.3536 13.0658 18.2705 12.6588 18.1586C11.8448 17.936 11.0676 17.714 10.327 17.4925C10.2985 17.4841 10.2684 17.4835 10.2399 17.4908C10.1221 17.5182 9.9906 17.5405 9.88558 17.5764C9.06078 17.859 8.40732 18.0679 7.92519 18.2031C6.48051 18.609 4.93964 19.0348 3.30256 19.4806C3.28157 19.4861 3.26211 19.4965 3.24567 19.5109C3.22924 19.5253 3.21628 19.5434 3.20779 19.5636C2.83039 20.466 2.51476 21.4033 2.26089 22.3753C2.2499 22.4174 2.25345 22.4621 2.27096 22.502C2.28846 22.5419 2.31891 22.5748 2.35737 22.5954C2.45642 22.6479 2.55318 22.7287 2.64767 22.8377C3.04613 23.2983 3.31224 23.8443 3.446 24.4756C3.53224 24.8797 3.62531 25.5013 3.82254 25.9448C4.04909 26.4551 4.35078 26.9311 4.7276 27.3729C4.93537 27.6172 5.26637 27.9029 5.7206 28.2299C6.18622 28.5655 6.54512 28.8204 6.79728 28.9945C7.12857 29.224 7.34146 29.4026 7.43595 29.5305C7.66762 29.8444 7.85432 30.0858 7.99606 30.2548C8.16341 30.4557 8.44774 30.692 8.84903 30.9637C9.15214 31.1701 9.72677 31.5382 9.66188 31.9612C9.63456 32.1415 9.5987 32.4024 9.5543 32.7437C9.3545 34.2874 10.4858 35.2703 11.4327 36.2173C12.1978 36.9836 12.0483 37.8389 11.9339 38.8226C11.8494 39.5401 11.8656 40.1043 11.9527 40.773C11.9563 40.7995 11.9668 40.8245 11.9832 40.8454C11.9996 40.8664 12.0212 40.8825 12.0458 40.892C12.7032 41.1506 13.4039 41.3592 14.1479 41.5179C14.1855 41.526 14.2247 41.5199 14.2583 41.5009C14.2918 41.4818 14.3172 41.451 14.3298 41.4143C14.422 41.1412 14.5569 40.9588 14.7883 40.7456C15.5078 40.0789 16.0929 39.3306 16.5437 38.5007C16.6573 38.2927 16.8588 38.0546 17.0518 37.9528C17.7195 37.6009 18.2821 37.3354 18.6834 36.7079C18.8121 36.5058 18.943 36.1356 19.0762 35.5974C19.1058 35.477 19.2174 35.0962 19.4109 34.4552C19.5834 33.8867 19.6295 33.2335 18.9464 32.9886C18.6817 32.8938 18.2668 32.762 17.7015 32.593C17.3885 32.4994 17.0987 32.3533 16.8323 32.1547C16.5181 31.9201 16.3491 31.5836 16.1066 31.2814C15.6062 30.6572 14.9522 30.3147 14.153 29.9021C13.8371 29.7388 13.5656 29.6321 13.3385 29.5818C12.6987 29.4409 12.0529 29.4331 11.4011 29.5587C11.0869 29.6195 10.8632 29.7334 10.5823 29.8832C10.4679 29.9437 10.362 29.9583 10.2647 29.9269C9.74954 29.7585 9.3878 29.4397 9.17947 28.9705C9.0309 28.6358 9.04712 28.1101 8.62277 27.9739C8.30515 27.872 7.91324 27.8053 7.64001 27.6606C6.98939 27.3155 6.39769 26.622 6.73325 25.8651C6.91255 25.4593 7.23729 25.1956 7.70747 25.074C8.37858 24.9011 9.07274 24.9242 9.64395 25.3472C9.79764 25.461 9.98377 25.6562 10.187 25.6853C10.5507 25.7384 10.8547 25.4379 10.8735 25.0826C10.9136 24.3214 10.9887 23.836 11.3619 23.2581C11.5599 22.9504 11.7666 22.671 11.9817 22.4199C12.3412 21.9995 12.6349 21.544 12.9705 21.1262C13.1145 20.9464 13.2579 20.8028 13.4008 20.6955C13.503 20.6194 13.6242 20.5734 13.7509 20.5628C14.9403 20.4601 16.1826 20.2674 17.0219 19.3658C17.1386 19.2403 17.2223 19.1138 17.2729 18.9866C17.2763 18.9782 17.2775 18.9691 17.2763 18.9602C17.2752 18.9512 17.2719 18.9427 17.2666 18.9354C17.2613 18.9282 17.2542 18.9224 17.2461 18.9186C17.2379 18.9148 17.2289 18.9131 17.22 18.9138Z" fill="#80CBC4"/>
<path d="M31.402 33.2643C31.4032 33.2906 31.3903 33.3237 31.3636 33.3636C31.3527 33.3798 31.3425 33.3953 31.3342 33.408C31.3258 33.4208 31.3197 33.4304 31.3166 33.4356C30.3734 35.2398 29.1249 36.7992 27.5709 38.1137C27.562 38.1211 27.5513 38.126 27.5398 38.1279C27.5284 38.1298 27.5167 38.1287 27.5059 38.1246C27.4951 38.1205 27.4855 38.1136 27.4782 38.1047C27.4709 38.0957 27.466 38.085 27.4642 38.0735C27.3395 37.2653 27.6067 36.5658 27.7638 35.8586C27.9141 35.1827 27.9921 34.703 27.9978 34.4193C28.0069 33.9775 27.9799 33.5072 27.9167 33.0083C27.8774 32.6958 27.8262 32.3473 27.6289 32.1145C27.3244 31.7543 26.9322 31.6564 26.4524 31.8208C25.321 32.2069 24.089 32.2823 23.2838 31.2728C22.9713 30.8807 22.794 30.4389 22.7519 29.9475C22.7058 29.4123 22.7015 28.8661 22.8133 28.3276C23.0883 27.013 23.7537 25.9519 24.8096 25.1443C25.3774 24.7093 26.1194 24.4747 26.8494 24.6169C27.4087 24.7256 27.8586 24.8823 28.3265 25.2068C29.0668 25.7205 29.7464 25.9097 30.6763 25.7153C30.8391 25.6817 30.972 25.6292 31.075 25.5578C31.3901 25.3403 31.3141 25.0698 31.1442 24.7556C31.0474 24.578 30.9199 24.3169 30.7616 23.9722C30.6888 23.814 30.5607 23.6776 30.3774 23.5629C30.2109 23.4584 29.7797 23.4739 29.6465 23.485C29.3477 23.5098 29.1274 23.3968 29.077 23.0911C29.0292 22.8026 28.978 22.1553 28.6877 21.8608C27.9935 21.157 27.2567 22.181 26.869 22.6904C26.4865 23.1913 26.0656 23.5184 25.4448 23.6391C24.6004 23.8026 24.4518 23.0903 24.5005 22.4559C24.5415 21.9227 24.5762 21.449 24.6047 21.0346C24.6841 19.8719 25.0393 18.9104 26.0161 18.2588C26.3576 18.0311 27.027 17.7494 27.3267 17.2374C27.5974 16.7768 27.5436 15.9634 27.4599 15.4446C27.4561 15.4225 27.4596 15.3998 27.4698 15.3799C27.4799 15.36 27.4962 15.344 27.5162 15.3341L28.3829 14.9043C28.4176 14.8872 28.4568 14.8816 28.4949 14.8884C28.533 14.8952 28.5679 14.9139 28.5946 14.942C28.7483 15.1047 29.0224 15.3564 29.241 15.6432C29.262 15.6706 29.3779 15.8127 29.5885 16.0696C30.0154 16.5901 30.4187 17.1638 30.7984 17.7905C31.9049 19.613 32.6164 21.5654 32.9329 23.6477C32.9637 23.8489 32.9645 24.0972 33.0209 24.3223C33.0271 24.3485 33.0306 24.3755 33.0311 24.4028C33.0328 24.6425 33.0471 24.8965 33.0738 25.1648C33.1063 25.4873 33.1211 25.7396 33.1182 25.9217C33.1006 27.2282 32.9995 28.333 32.8151 29.236C32.5248 30.6629 32.0714 31.9763 31.455 33.1761C31.4458 33.1944 31.437 33.2064 31.4285 33.2121C31.4201 33.2179 31.4133 33.2257 31.4087 33.2349C31.404 33.244 31.4018 33.2541 31.402 33.2643Z" fill="#2D534F"/>
<path d="M17.2199 18.9138C17.2289 18.9132 17.2379 18.9148 17.246 18.9186C17.2542 18.9224 17.2612 18.9282 17.2665 18.9355C17.2718 18.9428 17.2752 18.9513 17.2763 18.9602C17.2774 18.9691 17.2762 18.9782 17.2729 18.9866C17.2222 19.1139 17.1385 19.2403 17.0218 19.3659C16.1825 20.2674 14.9402 20.4601 13.7508 20.5628C13.6242 20.5734 13.5029 20.6194 13.4007 20.6955C13.2579 20.8028 13.1144 20.9464 12.9704 21.1262C12.6349 21.544 12.3411 21.9995 11.9817 22.4199C11.7665 22.671 11.5599 22.9504 11.3618 23.2581C10.9887 23.836 10.9135 24.3215 10.8734 25.0826C10.8546 25.4379 10.5507 25.7385 10.1869 25.6854C9.98372 25.6563 9.79759 25.4611 9.6439 25.3472C9.07269 24.9242 8.37852 24.9011 7.70741 25.0741C7.23724 25.1956 6.9125 25.4593 6.73319 25.8652C6.39764 26.622 6.98934 27.3155 7.63996 27.6606C7.91319 27.8053 8.30509 27.8721 8.62272 27.974C9.04707 28.1101 9.03085 28.6358 9.17941 28.9706C9.38775 29.4397 9.74949 29.7585 10.2646 29.9269C10.362 29.9583 10.4678 29.9437 10.5823 29.8832C10.8632 29.7334 11.0869 29.6195 11.4011 29.5588C12.0528 29.4332 12.6986 29.4409 13.3384 29.5819C13.5655 29.6321 13.8371 29.7388 14.153 29.9021C14.9522 30.3148 15.6062 30.6572 16.1065 31.2814C16.349 31.5836 16.5181 31.9201 16.8323 32.1547C17.0987 32.3533 17.3884 32.4995 17.7015 32.5931C18.2667 32.762 18.6817 32.8939 18.9464 32.9886C19.6294 33.2335 19.5833 33.8868 19.4109 34.4553C19.2173 35.0963 19.1057 35.477 19.0761 35.5974C18.9429 36.1357 18.812 36.5058 18.6834 36.7079C18.2821 37.3355 17.7194 37.6009 17.0517 37.9528C16.8588 38.0547 16.6573 38.2927 16.5437 38.5007C16.0929 39.3307 15.5077 40.079 14.7882 40.7457C14.5568 40.9588 14.4219 41.1412 14.3297 41.4143C14.3172 41.451 14.2917 41.4818 14.2582 41.5009C14.2247 41.52 14.1854 41.526 14.1478 41.5179C13.4039 41.3593 12.7032 41.1506 12.0457 40.8921C12.0211 40.8825 11.9995 40.8664 11.9832 40.8455C11.9668 40.8245 11.9563 40.7995 11.9527 40.7731C11.8656 40.1044 11.8493 39.5402 11.9339 38.8227C12.0483 37.8389 12.1977 36.9836 11.4327 36.2173C10.4858 35.2704 9.35445 34.2875 9.55425 32.7438C9.59865 32.4024 9.63451 32.1416 9.66183 31.9612C9.72672 31.5382 9.15209 31.1701 8.84898 30.9637C8.44768 30.6921 8.16336 30.4557 7.99601 30.2548C7.85427 30.0859 7.66757 29.8444 7.4359 29.5305C7.34141 29.4026 7.12852 29.224 6.79723 28.9945C6.54507 28.8204 6.18617 28.5656 5.72055 28.23C5.26631 27.9029 4.93532 27.6172 4.72755 27.3729C4.35073 26.9311 4.04904 26.4551 3.82249 25.9448C3.62526 25.5013 3.53219 24.8797 3.44595 24.4756C3.31219 23.8443 3.04607 23.2983 2.64762 22.8377C2.55313 22.7287 2.45636 22.6479 2.35732 22.5954C2.31886 22.5748 2.28841 22.5419 2.27091 22.502C2.2534 22.4621 2.24985 22.4175 2.26084 22.3754C2.51471 21.4033 2.83034 20.4661 3.20773 19.5637C3.21623 19.5434 3.22919 19.5254 3.24562 19.511C3.26205 19.4966 3.28152 19.4862 3.30251 19.4806C4.93958 19.0348 6.48046 18.609 7.92514 18.2032C8.40727 18.0679 9.06073 17.859 9.88553 17.5764C9.99055 17.5405 10.122 17.5182 10.2399 17.4908C10.2684 17.4836 10.2984 17.4841 10.327 17.4925C11.0675 17.714 11.8448 17.936 12.6588 18.1587C13.0658 18.2705 13.4212 18.3536 13.7252 18.4078C14.1197 18.478 14.6738 18.6244 15.1605 18.6912C16.0718 18.8168 16.581 18.8838 16.688 18.8924C16.9441 18.9141 17.1215 18.9212 17.2199 18.9138Z" fill="#2D534F"/>
</svg>
