<svg width="37" height="43" viewBox="0 0 37 43" fill="none" xmlns="http://www.w3.org/2000/svg">
<path d="M31.4149 14.7996C31.4072 14.8007 31.4 14.8039 31.394 14.8088C31.388 14.8137 31.3834 14.8201 31.3808 14.8274C31.3782 14.8347 31.3776 14.8426 31.379 14.8502C31.3805 14.8578 31.3841 14.8649 31.3892 14.8706C31.4872 14.9785 31.5982 15.1201 31.7222 15.2953C33.4954 17.7976 34.5353 20.5734 34.8421 23.6226C34.9338 24.533 34.9631 25.356 34.9301 26.0918C34.794 29.1358 33.9909 31.8876 32.5206 34.3471C31.1243 36.6828 29.2706 38.6106 26.9596 40.1306C24.7248 41.601 22.2149 42.5171 19.4297 42.879C18.7119 42.972 17.9218 43.0114 17.0594 42.9972C16.805 42.9932 16.5935 42.9786 16.425 42.9535C16.151 42.9124 15.8803 42.9244 15.5806 42.8858C15.3461 42.8562 15.0393 42.8105 14.6602 42.7489C12.3634 42.3784 10.2271 41.565 8.25133 40.3087C7.27342 39.6866 6.37405 38.9899 5.55323 38.2188C3.21886 36.027 1.59261 33.3999 0.674455 30.3376C0.340324 29.224 0.135404 28.1469 0.0596974 27.1064C-0.0160088 26.0635 -0.0197091 25.0407 0.0485972 24.0378C0.0725044 23.6879 0.12345 23.2401 0.201433 22.6944C0.277709 22.1602 0.357969 21.7167 0.442214 21.3639C0.708039 20.2486 1.09852 19.1536 1.61367 18.0788C1.77476 17.7431 1.9552 17.4226 2.15499 17.1173C2.17064 17.0938 2.1795 17.0662 2.18061 17.0376C2.19085 16.6832 2.10633 16.3484 2.07815 16.0205C1.98708 14.9805 1.96317 13.8418 2.00643 12.6043C2.02009 12.225 2.07303 11.9442 2.10206 11.5803C2.1419 11.0837 2.25632 10.4607 2.4453 9.71127C3.14088 6.95778 4.59353 4.73855 6.80324 3.05358C7.9081 2.21195 9.22555 1.57067 10.5311 1.0972C10.5702 1.08263 10.6047 1.05779 10.631 1.02528C11.2964 0.205627 12.1508 -0.122577 13.1941 0.0406693C13.3034 0.0577929 13.4856 0.153971 13.7406 0.329203C13.7642 0.345166 13.7928 0.351871 13.8209 0.348039C14.3377 0.278974 14.6038 0.243014 14.6192 0.24016C14.9795 0.170809 15.3168 0.199919 15.6856 0.140843C15.7943 0.123719 15.9367 0.114872 16.1125 0.114301C16.9225 0.11316 17.656 0.152543 18.3129 0.232454C19.3437 0.356886 20.3154 0.591767 21.2278 0.937094C23.9049 1.94968 25.8445 3.77877 27.0467 6.42438C27.4622 7.33878 27.7821 8.27459 28.0064 9.23181C28.0111 9.25205 28.0222 9.27023 28.0381 9.28364C28.0539 9.29706 28.0736 9.305 28.0943 9.3063C29.072 9.35852 29.7977 9.33969 30.7028 9.39448C31.1468 9.42188 31.5908 9.44785 32.0347 9.47239C32.6859 9.50836 33.373 9.57799 34.0959 9.6813C35.0086 9.81316 36.3235 10.0794 36.8068 10.9921C37.7144 12.7028 35.1956 13.8475 33.9926 14.2259C33.157 14.4891 32.2977 14.6803 31.4149 14.7996ZM31.3884 14.7259C31.3873 14.6797 31.406 14.654 31.4447 14.6489C32.4096 14.5227 33.3781 14.293 34.3503 13.9597C34.9947 13.7388 35.5369 13.4625 35.9769 13.1309C36.5182 12.7233 36.893 12.2379 36.8427 11.5332C36.8159 11.1605 36.6488 10.8568 36.3415 10.6223C36.062 10.4088 35.8263 10.2607 35.6345 10.1779C35.3946 10.0734 35.1563 10.0366 34.9395 9.95528C34.9037 9.94219 34.8665 9.93301 34.8285 9.92789C34.4707 9.88251 34.1625 9.78576 33.8363 9.74723C32.2744 9.56229 30.7068 9.47753 29.1334 9.49295C28.7475 9.49694 28.3639 9.46783 27.9825 9.40561C27.9559 9.40134 27.9312 9.38906 27.9116 9.37041C27.8921 9.35176 27.8787 9.32761 27.8732 9.30116C27.6313 8.18127 27.2519 7.10048 26.735 6.05879C26.3702 5.32361 25.9242 4.63581 25.3971 3.99538C24.3731 2.7522 23.0732 1.81126 21.4976 1.17255C20.715 0.855186 19.981 0.632863 19.2956 0.505577C18.3638 0.332627 17.4303 0.253003 16.4951 0.266702C16.1672 0.271839 15.7408 0.288392 15.216 0.316361C14.8159 0.33748 14.3929 0.391704 13.9472 0.479035C13.8583 0.4961 13.7663 0.478983 13.6894 0.431089C12.8936 -0.0680664 11.8605 0.123719 11.1219 0.645135C11.0769 0.677099 10.9494 0.810379 10.7394 1.04497C10.6998 1.08926 10.6537 1.12762 10.6028 1.15885C10.4747 1.23704 10.3677 1.29155 10.2817 1.32238C8.90821 1.81383 7.66049 2.5042 6.53855 3.39349C6.3268 3.56215 6.19275 3.73682 6.00064 3.8798C5.8868 3.96428 5.75303 4.087 5.59934 4.24796C4.86562 5.0191 4.28615 5.77825 3.86094 6.52541C3.05493 7.94268 2.52015 9.52634 2.2566 11.2764C2.22074 11.5161 2.21505 11.6902 2.23952 11.7986C2.2491 11.8399 2.24997 11.8827 2.24208 11.9245C2.18801 12.223 2.15898 12.4071 2.15499 12.4767C2.09067 13.5949 2.11145 14.6549 2.21732 15.6566C2.24066 15.8781 2.25546 16.0724 2.26172 16.2397C2.27026 16.458 2.38809 16.9974 2.23355 17.2277C2.01553 17.5525 1.82172 17.907 1.65209 18.2911C1.0638 19.619 0.628347 20.9007 0.402936 22.3032C0.360814 22.5652 0.321254 22.8058 0.284255 23.0249C0.22961 23.352 0.202003 23.5949 0.201433 23.7536C0.19688 24.7644 0.192326 25.5538 0.187772 26.1218C0.183218 26.6834 0.195173 27.1052 0.223634 27.3872C0.278279 27.9237 0.336908 28.3418 0.399522 28.6415C0.955365 31.2991 2.02521 33.8189 3.67908 35.9824C5.24899 38.0367 7.19629 39.6752 9.52098 40.8978C11.367 41.8696 13.4204 42.4809 15.4867 42.7463C15.8487 42.7934 16.1996 42.7626 16.4874 42.8096C16.7304 42.8502 16.9797 42.8699 17.2353 42.8687C17.7539 42.8659 18.0485 42.861 18.119 42.8542C18.6883 42.7994 19.1818 42.7586 19.5996 42.7317C19.8677 42.7146 20.0735 42.6435 20.2954 42.6059C20.3518 42.5962 20.481 42.5776 20.6831 42.5502C20.9751 42.5108 21.139 42.4535 21.4891 42.3764C22.0333 42.2554 22.7334 42.0382 23.5895 41.7249C24.2487 41.484 24.9149 41.1803 25.5883 40.8139C29.3127 38.7882 32.0026 35.7715 33.6579 31.764C33.8081 31.4004 34.0469 30.617 34.3742 29.4138C34.475 29.0448 34.504 28.567 34.6014 28.2382C34.6149 28.1924 34.6201 28.1445 34.6167 28.097C34.6105 28.0022 34.6236 27.8835 34.656 27.7408C34.72 27.4634 34.7123 27.1817 34.7602 26.9069C34.8088 26.6243 34.761 26.3538 34.8003 26.0524C34.8179 25.9206 34.8245 25.7744 34.8199 25.614C34.7966 24.7676 34.7764 24.2439 34.7593 24.0429C34.629 22.5401 34.3389 21.1196 33.8893 19.7817C33.8244 19.5899 33.6644 19.1747 33.4094 18.536C33.3334 18.3459 33.2045 18.1464 33.1174 17.9289C33.0633 17.7942 32.993 17.6418 32.9065 17.4717C32.5177 16.7126 32.0686 15.978 31.5592 15.2679C31.4647 15.1361 31.3705 15.021 31.2765 14.9229C31.2682 14.9141 31.2635 14.9024 31.2635 14.8903C31.2635 14.8782 31.2682 14.8666 31.2765 14.8578C31.3517 14.7773 31.389 14.7334 31.3884 14.7259Z" fill="#292D3D"/>
<path d="M31.3884 14.726C31.389 14.7334 31.3517 14.7773 31.2765 14.8578C31.2682 14.8666 31.2635 14.8782 31.2635 14.8903C31.2635 14.9025 31.2682 14.9141 31.2765 14.9229C31.3705 15.0211 31.4647 15.1361 31.5592 15.2679C32.0686 15.978 32.5177 16.7126 32.9065 17.4717C32.993 17.6418 33.0633 17.7942 33.1174 17.9289C33.2045 18.1464 33.3334 18.3459 33.4094 18.536C33.6644 19.1747 33.8244 19.5899 33.8893 19.7817C34.3389 21.1197 34.629 22.5401 34.7593 24.043C34.7764 24.2439 34.7966 24.7676 34.8199 25.6141C34.8245 25.7745 34.8179 25.9206 34.8003 26.0524C34.761 26.3538 34.8088 26.6244 34.7602 26.9069C34.7124 27.1817 34.72 27.4634 34.656 27.7408C34.6236 27.8835 34.6105 28.0022 34.6167 28.097C34.6201 28.1446 34.6149 28.1924 34.6014 28.2383C34.504 28.567 34.475 29.0448 34.3742 29.4138C34.0469 30.617 33.8081 31.4004 33.6579 31.764C32.0026 35.7715 29.3127 38.7882 25.5883 40.8139C24.9149 41.1804 24.2487 41.484 23.5895 41.7249C22.7334 42.0382 22.0333 42.2554 21.4891 42.3764C21.139 42.4535 20.9751 42.5109 20.6831 42.5502C20.481 42.5776 20.3518 42.5962 20.2954 42.6059C20.0735 42.6436 19.8677 42.7146 19.5996 42.7318C19.1818 42.7586 18.6883 42.7994 18.119 42.8542C18.0485 42.861 17.7539 42.8659 17.2353 42.8687C16.9797 42.8699 16.7304 42.8502 16.4874 42.8097C16.1996 42.7626 15.8487 42.7934 15.4867 42.7463C13.4204 42.4809 11.367 41.8696 9.52098 40.8978C7.19628 39.6752 5.24899 38.0367 3.67908 35.9825C2.02521 33.8189 0.955364 31.2991 0.399521 28.6415C0.336907 28.3419 0.278278 27.9238 0.223633 27.3872C0.195172 27.1052 0.183217 26.6834 0.187771 26.1218C0.192324 25.5538 0.196879 24.7644 0.201432 23.7536C0.202002 23.5949 0.229609 23.352 0.284254 23.025C0.321253 22.8058 0.360812 22.5652 0.402935 22.3032C0.628346 20.9008 1.0638 19.6191 1.65209 18.2911C1.82171 17.907 2.01553 17.5525 2.23354 17.2277C2.38809 16.9974 2.27026 16.458 2.26172 16.2397C2.25546 16.0725 2.24066 15.8781 2.21732 15.6566C2.11145 14.6549 2.09067 13.5949 2.15499 12.4768C2.15898 12.4071 2.18801 12.2231 2.24208 11.9245C2.24997 11.8828 2.2491 11.8399 2.23952 11.7987C2.21505 11.6902 2.22074 11.5161 2.2566 11.2764C2.52015 9.52635 3.05493 7.9427 3.86094 6.52543C4.28615 5.77826 4.86562 5.01911 5.59934 4.24798C5.75303 4.08702 5.88679 3.9643 6.00064 3.87982C6.19275 3.73684 6.3268 3.56217 6.53855 3.39351C7.66048 2.50422 8.90821 1.81385 10.2817 1.3224C10.3677 1.29157 10.4747 1.23706 10.6028 1.15886C10.6537 1.12763 10.6998 1.08927 10.7394 1.04499C10.9494 0.810398 11.0769 0.677118 11.1219 0.645154C11.8605 0.123738 12.8936 -0.0680473 13.6894 0.431108C13.7663 0.479002 13.8583 0.496119 13.9472 0.479054C14.3929 0.391724 14.8159 0.337499 15.216 0.31638C15.7408 0.288411 16.1672 0.271858 16.4951 0.266721C17.4303 0.253022 18.3638 0.332647 19.2956 0.505596C19.981 0.632882 20.715 0.855205 21.4976 1.17256C23.0732 1.81128 24.3731 2.75222 25.3971 3.9954C25.9242 4.63583 26.3702 5.32363 26.735 6.05881C27.2519 7.1005 27.6313 8.18129 27.8732 9.30118C27.8787 9.32763 27.8921 9.35178 27.9116 9.37043C27.9312 9.38908 27.9559 9.40136 27.9825 9.40563C28.3639 9.46785 28.7475 9.49696 29.1334 9.49296C30.7068 9.47755 32.2744 9.56231 33.8363 9.74725C34.1625 9.78578 34.4707 9.88253 34.8285 9.92791C34.8665 9.93303 34.9037 9.94221 34.9395 9.9553C35.1563 10.0366 35.3946 10.0735 35.6345 10.1779C35.8263 10.2607 36.062 10.4088 36.3415 10.6223C36.6488 10.8569 36.8159 11.1605 36.8427 11.5333C36.893 12.2379 36.5182 12.7233 35.9769 13.1309C35.5369 13.4625 34.9947 13.7388 34.3503 13.9597C33.3781 14.293 32.4096 14.5228 31.4448 14.6489C31.406 14.654 31.3873 14.6797 31.3884 14.726ZM26.309 9.41591C26.3138 9.41347 26.3176 9.40948 26.3198 9.40463C26.322 9.39978 26.3224 9.39437 26.3209 9.38936C25.8453 7.43213 24.8908 5.42694 23.4495 4.09215C22.6822 3.38152 21.8602 2.83556 20.9836 2.45427C19.0164 1.59894 16.8511 1.40887 14.7447 1.58696C12.5 1.77703 10.2877 2.53989 8.47504 3.92263C6.80267 5.19834 5.55636 6.77258 4.73612 8.64534C3.92669 10.493 3.60309 12.5667 3.70299 14.577C3.74568 15.4446 3.79947 16.1929 3.86436 16.8219C3.86562 16.8343 3.86958 16.8462 3.87596 16.8569C3.88234 16.8676 3.89099 16.8767 3.90131 16.8837C3.91163 16.8908 3.92337 16.8954 3.93572 16.8975C3.94806 16.8995 3.96071 16.8988 3.97279 16.8955C4.66781 16.7015 5.20942 16.5573 5.59763 16.4632C7.04231 16.1127 8.52171 15.6344 10.0358 15.0282C11.9006 14.281 13.68 13.4819 15.374 12.6309C16.279 12.1762 17.2686 11.7208 17.9602 11.4237C20.5616 10.3078 23.3026 9.65107 26.1835 9.45358C26.221 9.45072 26.2629 9.43817 26.309 9.41591ZM32.3481 10.8954C32.3521 10.8891 32.3544 10.8819 32.3548 10.8745C32.3552 10.867 32.3537 10.8596 32.3504 10.8529C32.3472 10.8462 32.3423 10.8405 32.3362 10.8362C32.3301 10.832 32.323 10.8294 32.3157 10.8286C31.4763 10.7541 30.7702 10.7284 29.8097 10.6779C27.5823 10.5598 25.3589 10.7304 23.1396 11.1899C22.179 11.3886 21.2859 11.6788 20.3749 12.0213C19.4732 12.3598 18.6043 12.7316 17.7681 13.1369C16.32 13.8378 14.9158 14.5188 13.5553 15.1797C13.1791 15.3624 12.815 15.5082 12.4633 15.6173C12.4583 15.6189 12.454 15.622 12.4508 15.6262C12.4477 15.6303 12.4458 15.6353 12.4454 15.6405C12.445 15.6457 12.4462 15.6509 12.4488 15.6555C12.4514 15.66 12.4552 15.6637 12.4599 15.6661C12.5805 15.7248 12.7186 15.7785 12.874 15.827C14.1026 16.2106 15.4056 16.5205 16.6154 16.6053C17.8068 16.6886 18.9632 16.6521 20.0846 16.4957C21.2412 16.3336 22.3372 15.9215 23.3726 15.2594C23.6459 15.0847 24.2538 14.6834 25.1964 14.0556C25.9091 13.5807 26.7504 13.0898 27.7203 12.5829C29.1741 11.8232 30.6948 11.2715 32.2824 10.9279C32.3165 10.9211 32.3384 10.9102 32.3481 10.8954ZM28.4299 14.0188C28.2546 14.0844 28.1621 14.1195 28.1524 14.1241C27.2303 14.575 26.3352 15.1209 25.4671 15.7619C24.6821 16.3413 24.1821 16.7029 23.9669 16.8467C22.7038 17.6881 21.3092 18.1048 19.7831 18.0968C19.0497 18.0925 18.3564 18.0959 17.5214 18.0856C16.9647 18.0779 16.589 17.9803 15.9887 17.9187C14.1487 17.7303 12.4197 17.1952 10.6788 16.7166C10.3759 16.6333 10.1019 16.6301 9.85653 16.7072C7.93029 17.3156 5.76043 17.9392 3.34694 18.5779C3.17788 18.6225 3.06034 18.7258 2.99431 18.8879C2.70059 19.6036 2.4433 20.3271 2.22244 21.0583C1.87921 22.1942 1.66945 23.5093 1.59317 25.0036C1.55504 25.757 1.57951 26.4471 1.6666 27.0739C1.75369 27.6997 1.87067 28.4951 2.00472 29.0602C2.80134 32.407 4.66867 35.408 7.2959 37.628C9.35619 39.3695 11.8007 40.5999 14.4254 41.0905C15.0248 41.2026 15.6267 41.2857 16.1655 41.3225C17.2977 41.4004 18.534 41.4021 19.6961 41.2009C20.4964 41.0633 21.0041 40.9669 21.2193 40.9115C24.3793 40.099 27.2038 38.3883 29.3785 35.9097C32.1594 32.7392 33.5768 28.6287 33.2907 24.4086C33.2395 23.6443 33.1459 22.9034 33.0098 22.1859C32.4531 19.2449 30.9837 16.5051 28.9285 14.3501C28.8198 14.2354 28.6798 14.1272 28.5084 14.0256C28.4967 14.0187 28.4835 14.0144 28.4699 14.0132C28.4563 14.0121 28.4427 14.0139 28.4299 14.0188Z" fill="#292D3D"/>
<path d="M26.309 9.41599C26.2629 9.43825 26.221 9.45081 26.1835 9.45367C23.3026 9.65116 20.5616 10.3079 17.9602 11.4237C17.2686 11.7208 16.279 12.1763 15.374 12.631C13.68 13.482 11.9006 14.2811 10.0358 15.0283C8.52172 15.6345 7.04232 16.1128 5.59764 16.4632C5.20943 16.5574 4.66782 16.7016 3.97281 16.8956C3.96072 16.8989 3.94807 16.8996 3.93573 16.8976C3.92338 16.8955 3.91164 16.8908 3.90132 16.8838C3.891 16.8768 3.88235 16.8677 3.87597 16.857C3.86959 16.8463 3.86563 16.8344 3.86437 16.822C3.79948 16.193 3.74569 15.4447 3.703 14.5771C3.6031 12.5668 3.9267 10.4931 4.73613 8.64543C5.55637 6.77267 6.80268 5.19843 8.47505 3.92272C10.2877 2.53998 12.5 1.77712 14.7447 1.58705C16.8511 1.40896 19.0164 1.59903 20.9836 2.45436C21.8602 2.83565 22.6822 3.38161 23.4495 4.09224C24.8908 5.42703 25.8453 7.43222 26.3209 9.38945C26.3224 9.39446 26.322 9.39987 26.3198 9.40472C26.3177 9.40957 26.3138 9.41356 26.309 9.41599Z" fill="#A7ADCD"/>
<path d="M32.3481 10.8953C32.3384 10.9102 32.3165 10.921 32.2823 10.9279C30.6948 11.2715 29.1741 11.8231 27.7203 12.5829C26.7504 13.0897 25.9091 13.5806 25.1964 14.0555C24.2538 14.6834 23.6458 15.0846 23.3726 15.2593C22.3372 15.9214 21.2412 16.3335 20.0845 16.4956C18.9632 16.652 17.8068 16.6886 16.6154 16.6052C15.4055 16.5205 14.1026 16.2105 12.8739 15.8269C12.7185 15.7784 12.5805 15.7248 12.4598 15.666C12.4552 15.6636 12.4513 15.6599 12.4488 15.6554C12.4462 15.6509 12.445 15.6457 12.4454 15.6404C12.4457 15.6352 12.4476 15.6302 12.4508 15.6261C12.454 15.622 12.4583 15.6189 12.4632 15.6172C12.815 15.5082 13.179 15.3623 13.5553 15.1797C14.9157 14.5187 16.32 13.8377 17.7681 13.1368C18.6043 12.7316 19.4732 12.3597 20.3748 12.0212C21.2859 11.6787 22.179 11.3885 23.1395 11.1899C25.3589 10.7304 27.5823 10.5597 29.8096 10.6779C30.7702 10.7284 31.4763 10.7541 32.3156 10.8285C32.323 10.8293 32.3301 10.8319 32.3362 10.8362C32.3423 10.8404 32.3472 10.8462 32.3504 10.8529C32.3537 10.8596 32.3552 10.867 32.3547 10.8744C32.3543 10.8818 32.352 10.889 32.3481 10.8953Z" fill="#A7ADCD"/>
<path d="M28.441 14.1035C28.4603 14.0947 28.4819 14.0919 28.5029 14.0956C28.5239 14.0992 28.5434 14.1092 28.5588 14.1241C29.4081 14.9517 30.1569 15.8924 30.8053 16.946C32.4674 19.647 33.2592 22.6183 33.1806 25.8598C33.0824 29.8744 31.4764 33.6973 28.6382 36.5544C27.3746 37.8267 25.968 38.841 24.4186 39.5973C21.1473 41.1932 17.7237 41.6273 14.1479 40.8995C10.9819 40.2548 7.99606 38.462 5.81282 36.0561C3.27438 33.2581 1.79043 29.585 1.72725 25.8041C1.68712 23.3572 2.19514 21.0352 3.13692 18.8442C3.15208 18.8085 3.1752 18.7767 3.2045 18.7513C3.23381 18.726 3.26852 18.7076 3.30597 18.6978C4.64876 18.3445 6.18793 17.921 7.92348 17.4272C8.57923 17.2406 9.24863 17.0262 9.93169 16.7842C10.1887 16.6926 10.3893 16.7183 10.6668 16.8022C11.2873 16.9894 11.7871 17.137 12.1662 17.2449C13.8129 17.7123 15.4822 18.02 17.1739 18.1678C18.1899 18.2569 19.1895 18.2728 20.1725 18.2158C20.8835 18.1741 21.4726 18.0828 21.9399 17.9418C23.2378 17.5505 24.2444 16.8476 25.3331 16.0111C26.3463 15.2331 27.3823 14.5972 28.441 14.1035ZM31.4285 32.5226C31.4371 32.5169 31.4459 32.5049 31.455 32.4866C32.0715 31.2868 32.5249 29.9735 32.8152 28.5465C32.9996 27.6435 33.1006 26.5387 33.1183 25.2322C33.1211 25.0501 33.1063 24.7978 33.0739 24.4753C33.0471 24.2071 33.0329 23.9531 33.0312 23.7133C33.0306 23.686 33.0272 23.659 33.0209 23.6328C32.9646 23.4077 32.9637 23.1594 32.933 22.9582C32.6165 20.8759 31.905 18.9235 30.7984 17.101C30.4188 16.4743 30.0155 15.9006 29.5885 15.3801C29.3779 15.1232 29.2621 14.9811 29.241 14.9537C29.0225 14.6669 28.7484 14.4152 28.5947 14.2525C28.568 14.2245 28.533 14.2057 28.495 14.1989C28.4569 14.1921 28.4176 14.1977 28.3829 14.2148L27.5163 14.6446C27.4963 14.6545 27.48 14.6705 27.4698 14.6905C27.4597 14.7104 27.4562 14.733 27.4599 14.7551C27.5436 15.2739 27.5974 16.0873 27.3267 16.5479C27.0271 17.0599 26.3577 17.3416 26.0161 17.5693C25.0393 18.2209 24.6841 19.1824 24.6047 20.3451C24.5763 20.7595 24.5416 21.2332 24.5006 21.7664C24.4519 22.4008 24.6005 23.1131 25.4449 22.9496C26.0656 22.8289 26.4866 22.5018 26.8691 22.001C27.2567 21.4915 27.9936 20.4675 28.6878 21.1713C28.9781 21.4658 29.0293 22.1131 29.0771 22.4017C29.1275 22.7073 29.3478 22.8203 29.6466 22.7955C29.7798 22.7844 30.211 22.769 30.3775 22.8734C30.5608 22.9881 30.6888 23.1246 30.7617 23.2827C30.92 23.6274 31.0475 23.8886 31.1442 24.0661C31.3141 24.3803 31.3901 24.6508 31.0751 24.8683C30.972 24.9397 30.8391 24.9922 30.6763 25.0259C29.7465 25.2202 29.0669 25.031 28.3266 24.5173C27.8587 24.1928 27.4087 24.0361 26.8495 23.9274C26.1194 23.7852 25.3775 24.0198 24.8097 24.4548C23.7538 25.2625 23.0883 26.3235 22.8134 27.6381C22.7016 28.1766 22.7058 28.7229 22.7519 29.258C22.7941 29.7494 22.9714 30.1912 23.2839 30.5833C24.089 31.5928 25.3211 31.5174 26.4524 31.1313C26.9323 30.9669 27.3245 31.0648 27.629 31.425C27.8262 31.6579 27.8775 32.0063 27.9167 32.3188C27.9799 32.8177 28.007 33.288 27.9979 33.7298C27.9922 34.0135 27.9142 34.4933 27.7639 35.1691C27.6068 35.8763 27.3396 36.5758 27.4642 37.384C27.4661 37.3955 27.4709 37.4062 27.4783 37.4152C27.4856 37.4242 27.4951 37.431 27.506 37.4351C27.5168 37.4392 27.5285 37.4403 27.5399 37.4384C27.5513 37.4365 27.562 37.4316 27.5709 37.4243C29.1249 36.1097 30.3735 34.5503 31.3167 32.7461C31.3198 32.7409 31.3259 32.7313 31.3342 32.7186C31.3426 32.7058 31.3528 32.6904 31.3637 32.6742C31.3904 32.6342 31.4032 32.6011 31.4021 32.5748C31.4018 32.5646 31.4041 32.5545 31.4087 32.5454C31.4134 32.5362 31.4202 32.5284 31.4285 32.5226ZM17.22 18.2243C17.1215 18.2317 16.9442 18.2246 16.688 18.2029C16.581 18.1944 16.0719 18.1273 15.1605 18.0017C14.6739 17.9349 14.1197 17.7885 13.7253 17.7183C13.4213 17.6641 13.0658 17.581 12.6588 17.4692C11.8448 17.2466 11.0676 17.0245 10.327 16.8031C10.2985 16.7947 10.2684 16.7941 10.2399 16.8013C10.1221 16.8287 9.9906 16.851 9.88558 16.887C9.06078 17.1695 8.40732 17.3784 7.92519 17.5137C6.48051 17.9195 4.93964 18.3453 3.30256 18.7911C3.28157 18.7967 3.26211 18.8071 3.24567 18.8215C3.22924 18.8359 3.21628 18.8539 3.20779 18.8742C2.83039 19.7766 2.51476 20.7138 2.26089 21.6859C2.2499 21.728 2.25345 21.7726 2.27096 21.8125C2.28846 21.8525 2.31891 21.8854 2.35737 21.9059C2.45642 21.9584 2.55318 22.0392 2.64767 22.1482C3.04613 22.6088 3.31224 23.1548 3.446 23.7861C3.53224 24.1902 3.62531 24.8118 3.82254 25.2553C4.04909 25.7656 4.35078 26.2416 4.7276 26.6834C4.93537 26.9277 5.26637 27.2134 5.7206 27.5405C6.18622 27.8761 6.54512 28.131 6.79728 28.305C7.12857 28.5345 7.34146 28.7132 7.43595 28.841C7.66762 29.1549 7.85432 29.3964 7.99606 29.5653C8.16341 29.7663 8.44774 30.0026 8.84903 30.2743C9.15214 30.4806 9.72677 30.8488 9.66188 31.2717C9.63456 31.4521 9.5987 31.7129 9.5543 32.0543C9.3545 33.598 10.4858 34.5809 11.4327 35.5278C12.1978 36.2941 12.0483 37.1494 11.9339 38.1332C11.8494 38.8507 11.8656 39.4149 11.9527 40.0836C11.9563 40.1101 11.9668 40.1351 11.9832 40.156C11.9996 40.1769 12.0212 40.193 12.0458 40.2026C12.7032 40.4612 13.4039 40.6698 14.1479 40.8285C14.1855 40.8366 14.2247 40.8305 14.2583 40.8114C14.2918 40.7923 14.3172 40.7615 14.3298 40.7249C14.422 40.4517 14.5569 40.2694 14.7883 40.0562C15.5078 39.3895 16.0929 38.6412 16.5437 37.8113C16.6573 37.6032 16.8588 37.3652 17.0518 37.2633C17.7195 36.9114 18.2821 36.646 18.6834 36.0184C18.8121 35.8164 18.943 35.4462 19.0762 34.9079C19.1058 34.7875 19.2174 34.4068 19.4109 33.7658C19.5834 33.1973 19.6295 32.544 18.9464 32.2991C18.6817 32.2044 18.2668 32.0725 17.7015 31.9036C17.3885 31.81 17.0987 31.6639 16.8323 31.4652C16.5181 31.2306 16.3491 30.8941 16.1066 30.5919C15.6062 29.9678 14.9522 29.6253 14.153 29.2126C13.8371 29.0494 13.5656 28.9426 13.3385 28.8924C12.6987 28.7514 12.0529 28.7437 11.4011 28.8693C11.0869 28.9301 10.8632 29.0439 10.5823 29.1938C10.4679 29.2543 10.362 29.2688 10.2647 29.2374C9.74954 29.069 9.3878 28.7503 9.17947 28.2811C9.0309 27.9463 9.04712 27.4206 8.62277 27.2845C8.30515 27.1826 7.91324 27.1158 7.64001 26.9711C6.98939 26.6261 6.39769 25.9326 6.73325 25.1757C6.91255 24.7699 7.23729 24.5062 7.70747 24.3846C8.37858 24.2116 9.07274 24.2347 9.64395 24.6577C9.79764 24.7716 9.98377 24.9668 10.187 24.9959C10.5507 25.049 10.8547 24.7485 10.8735 24.3931C10.9136 23.632 10.9887 23.1465 11.3619 22.5686C11.5599 22.261 11.7666 21.9816 11.9817 21.7304C12.3412 21.31 12.6349 20.8545 12.9705 20.4367C13.1145 20.2569 13.2579 20.1134 13.4008 20.006C13.503 19.9299 13.6242 19.884 13.7509 19.8733C14.9403 19.7706 16.1826 19.578 17.0219 18.6764C17.1386 18.5508 17.2223 18.4244 17.2729 18.2971C17.2763 18.2887 17.2775 18.2797 17.2763 18.2707C17.2752 18.2618 17.2719 18.2533 17.2666 18.246C17.2613 18.2387 17.2542 18.2329 17.2461 18.2291C17.2379 18.2253 17.2289 18.2237 17.22 18.2243Z" fill="#80CBC4"/>
<path d="M31.402 32.5748C31.4032 32.601 31.3903 32.6341 31.3636 32.6741C31.3527 32.6903 31.3425 32.7057 31.3342 32.7185C31.3258 32.7313 31.3197 32.7408 31.3166 32.746C30.3734 34.5503 29.1249 36.1097 27.5709 37.4242C27.562 37.4316 27.5513 37.4365 27.5398 37.4384C27.5284 37.4403 27.5167 37.4391 27.5059 37.4351C27.4951 37.431 27.4855 37.4241 27.4782 37.4151C27.4709 37.4062 27.466 37.3954 27.4642 37.384C27.3395 36.5757 27.6067 35.8762 27.7638 35.169C27.9141 34.4932 27.9921 34.0135 27.9978 33.7298C28.0069 33.288 27.9799 32.8176 27.9167 32.3188C27.8774 32.0063 27.8262 31.6578 27.6289 31.4249C27.3244 31.0648 26.9322 30.9669 26.4524 31.1313C25.321 31.5174 24.089 31.5927 23.2838 30.5833C22.9713 30.1912 22.794 29.7494 22.7519 29.2579C22.7058 28.7228 22.7015 28.1766 22.8133 27.638C23.0883 26.3235 23.7537 25.2624 24.8096 24.4547C25.3774 24.0198 26.1194 23.7852 26.8494 23.9273C27.4087 24.0361 27.8586 24.1927 28.3265 24.5172C29.0668 25.0309 29.7464 25.2202 30.6763 25.0258C30.8391 24.9921 30.972 24.9396 31.075 24.8683C31.3901 24.6508 31.3141 24.3802 31.1442 24.066C31.0474 23.8885 30.9199 23.6274 30.7616 23.2826C30.6888 23.1245 30.5607 22.9881 30.3774 22.8734C30.2109 22.7689 29.7797 22.7843 29.6465 22.7954C29.3477 22.8203 29.1274 22.7073 29.077 22.4016C29.0292 22.1131 28.978 21.4658 28.6877 21.1713C27.9935 20.4675 27.2567 21.4915 26.869 22.0009C26.4865 22.5018 26.0656 22.8288 25.4448 22.9496C24.6004 23.1131 24.4518 22.4007 24.5005 21.7663C24.5415 21.2332 24.5762 20.7594 24.6047 20.345C24.6841 19.1823 25.0393 18.2208 26.0161 17.5693C26.3576 17.3415 27.027 17.0599 27.3267 16.5479C27.5974 16.0872 27.5436 15.2739 27.4599 14.755C27.4561 14.733 27.4596 14.7103 27.4698 14.6904C27.4799 14.6705 27.4962 14.6544 27.5162 14.6446L28.3829 14.2148C28.4176 14.1976 28.4568 14.1921 28.4949 14.1988C28.533 14.2056 28.5679 14.2244 28.5946 14.2524C28.7483 14.4151 29.0224 14.6668 29.241 14.9536C29.262 14.981 29.3779 15.1232 29.5885 15.38C30.0154 15.9006 30.4187 16.4742 30.7984 17.101C31.9049 18.9235 32.6164 20.8759 32.9329 22.9581C32.9637 23.1593 32.9645 23.4076 33.0209 23.6328C33.0271 23.659 33.0306 23.686 33.0311 23.7133C33.0328 23.953 33.0471 24.207 33.0738 24.4753C33.1063 24.7978 33.1211 25.0501 33.1182 25.2321C33.1006 26.5387 32.9995 27.6434 32.8151 28.5464C32.5248 29.9734 32.0714 31.2868 31.455 32.4866C31.4458 32.5049 31.437 32.5168 31.4285 32.5226C31.4201 32.5284 31.4133 32.5362 31.4087 32.5453C31.404 32.5544 31.4018 32.5646 31.402 32.5748Z" fill="#2D534F"/>
<path d="M17.2199 18.2243C17.2289 18.2236 17.2379 18.2253 17.246 18.2291C17.2542 18.2329 17.2612 18.2387 17.2665 18.246C17.2718 18.2532 17.2752 18.2617 17.2763 18.2707C17.2774 18.2796 17.2762 18.2887 17.2729 18.2971C17.2222 18.4244 17.1385 18.5508 17.0218 18.6764C16.1825 19.5779 14.9402 19.7706 13.7508 19.8733C13.6242 19.8839 13.5029 19.9299 13.4007 20.006C13.2579 20.1133 13.1144 20.2569 12.9704 20.4367C12.6349 20.8545 12.3411 21.31 11.9817 21.7304C11.7665 21.9815 11.5599 22.2609 11.3618 22.5686C10.9887 23.1465 10.9135 23.632 10.8734 24.3931C10.8546 24.7484 10.5507 25.0489 10.1869 24.9959C9.98372 24.9667 9.79759 24.7715 9.6439 24.6577C9.07269 24.2347 8.37852 24.2116 7.70741 24.3845C7.23724 24.5061 6.9125 24.7698 6.73319 25.1757C6.39764 25.9325 6.98934 26.626 7.63996 26.9711C7.91319 27.1158 8.30509 27.1826 8.62272 27.2844C9.04707 27.4206 9.03085 27.9463 9.17941 28.281C9.38775 28.7502 9.74949 29.069 10.2646 29.2374C10.362 29.2688 10.4678 29.2542 10.5823 29.1937C10.8632 29.0439 11.0869 28.93 11.4011 28.8692C12.0528 28.7437 12.6986 28.7514 13.3384 28.8924C13.5655 28.9426 13.8371 29.0493 14.153 29.2126C14.9522 29.6252 15.6062 29.9677 16.1065 30.5919C16.349 30.8941 16.5181 31.2306 16.8323 31.4652C17.0987 31.6638 17.3884 31.8099 17.7015 31.9036C18.2667 32.0725 18.6817 32.2044 18.9464 32.2991C19.6294 32.544 19.5833 33.1973 19.4109 33.7658C19.2173 34.4068 19.1057 34.7875 19.0761 34.9079C18.9429 35.4462 18.812 35.8163 18.6834 36.0184C18.2821 36.646 17.7194 36.9114 17.0517 37.2633C16.8588 37.3652 16.6573 37.6032 16.5437 37.8112C16.0929 38.6412 15.5077 39.3895 14.7882 40.0561C14.5568 40.2693 14.4219 40.4517 14.3297 40.7248C14.3172 40.7615 14.2917 40.7923 14.2582 40.8114C14.2247 40.8305 14.1854 40.8365 14.1478 40.8284C13.4039 40.6697 12.7032 40.4611 12.0457 40.2026C12.0211 40.193 11.9995 40.1769 11.9832 40.156C11.9668 40.135 11.9563 40.11 11.9527 40.0835C11.8656 39.4149 11.8493 38.8506 11.9339 38.1332C12.0483 37.1494 12.1977 36.2941 11.4327 35.5278C10.4858 34.5808 9.35445 33.5979 9.55425 32.0542C9.59865 31.7129 9.63451 31.4521 9.66183 31.2717C9.72672 30.8487 9.15209 30.4806 8.84898 30.2742C8.44768 30.0025 8.16336 29.7662 7.99601 29.5653C7.85427 29.3964 7.66757 29.1549 7.4359 28.841C7.34141 28.7131 7.12852 28.5345 6.79723 28.305C6.54507 28.1309 6.18617 27.8761 5.72055 27.5404C5.26631 27.2134 4.93532 26.9277 4.72755 26.6834C4.35073 26.2416 4.04904 25.7656 3.82249 25.2553C3.62526 24.8118 3.53219 24.1902 3.44595 23.7861C3.31219 23.1548 3.04607 22.6088 2.64762 22.1482C2.55313 22.0392 2.45636 21.9584 2.35732 21.9059C2.31886 21.8853 2.28841 21.8524 2.27091 21.8125C2.2534 21.7726 2.24985 21.728 2.26084 21.6858C2.51471 20.7138 2.83034 19.7766 3.20773 18.8741C3.21623 18.8539 3.22919 18.8358 3.24562 18.8214C3.26205 18.807 3.28152 18.7967 3.30251 18.7911C4.93958 18.3453 6.48046 17.9195 7.92514 17.5137C8.40727 17.3784 9.06073 17.1695 9.88553 16.8869C9.99055 16.851 10.122 16.8287 10.2399 16.8013C10.2684 16.794 10.2984 16.7946 10.327 16.803C11.0675 17.0245 11.8448 17.2465 12.6588 17.4691C13.0658 17.581 13.4212 17.6641 13.7252 17.7183C14.1197 17.7885 14.6738 17.9349 15.1605 18.0017C16.0718 18.1273 16.581 18.1943 16.688 18.2029C16.9441 18.2246 17.1215 18.2317 17.2199 18.2243Z" fill="#2D534F"/>
</svg>
